<svg version="1" xmlns="http://www.w3.org/2000/svg" width="1333.333" height="1333.333" viewBox="0 0 1000.000000 1000.000000"><path d="M573.5 171.6c-1.6.2-7.7.9-13.5 1.5-42.2 4.4-90.6 19-131.4 39.5C326.5 264 253.9 351.3 228 453.9c-3 11.9-6.6 32.4-8.5 48.1-2.3 18.6-3.1 57.1-1.6 73.9 7.7 87.2 52.2 165.6 118.9 209.4 21.2 13.9 46.5 25.6 69.7 32.2 27.3 7.8 47.6 10.5 83 11.2 73.6 1.4 130.5-10.6 189.7-40.3 10.7-5.4 13.1-7 15.6-10.6 12.7-18.9 46.7-96.4 60.1-137.1 2.6-7.8 2.4-8.2-4.6-12.3-5.1-3.1-13.3-5.4-19-5.4h-4.1l-6.5 12.3c-11.3 21.5-30.8 52-46.1 72.2-8.3 10.9-27.3 30.3-37.5 38.3-16.3 12.8-35.7 23.1-57.8 30.6-33.4 11.5-75.3 12.3-107 2-27.8-8.9-54.9-30.7-73-58.6-5.4-8.4-15.2-28-20.2-40.6-16.1-40.5-23.7-91.6-21.2-142.7 3.6-72 16.4-124.6 43.5-178.5 16.7-33.2 34.2-57.8 58-81.6 25.6-25.5 52.5-43 82.1-53.4 28-9.8 67-12.2 96.3-5.9 42.1 9.1 75.5 38.9 93.2 83.3 3.5 8.6 9.5 31.2 10.5 39.1 1.3 10 1.5 10.6 5.1 12.1 7.3 3 17.2 1.3 23.7-4.2 5.1-4.3 5.7-5.7 7.2-18.1 3.9-32.4 10.3-103.5 10.7-119.7l.3-10.9-20-4.3c-19.7-4.3-64.4-12.9-82-15.8-29.5-5-61-7.6-88.5-7.4-11.8 0-22.8.3-24.5.4z"/></svg>